Urbanist-Regular.ufo
<glyph name="dollar" format="2">
  <advance width="1182.75"/>
  <unicode hex="0024"/>
  <outline>
    <contour>
      <point x="591" y="1270" type="curve"/>
      <point x="753" y="1270"/>
      <point x="918" y="1197"/>
      <point x="961" y="1077" type="curve"/>
      <point x="1103" y="1128" type="line"/>
      <point x="1039" y="1299"/>
      <point x="846" y="1402"/>
      <point x="648" y="1418" type="curve"/>
      <point x="648" y="1624" type="line"/>
      <point x="536" y="1624" type="line"/>
      <point x="536" y="1418" type="line"/>
      <point x="292" y="1398"/>
      <point x="86" y="1246"/>
      <point x="86" y="1022" type="curve"/>
      <point x="86" y="762"/>
      <point x="303" y="672"/>
      <point x="591" y="623" type="curve"/>
      <point x="768" y="592"/>
      <point x="947" y="527"/>
      <point x="947" y="373" type="curve"/>
      <point x="947" y="223"/>
      <point x="777" y="124"/>
      <point x="591" y="124" type="curve"/>
      <point x="428" y="124"/>
      <point x="263" y="198"/>
      <point x="221" y="318" type="curve"/>
      <point x="80" y="266" type="line"/>
      <point x="140" y="99"/>
      <point x="330" y="-8"/>
      <point x="536" y="-23" type="curve"/>
      <point x="536" y="-224" type="line"/>
      <point x="648" y="-224" type="line"/>
      <point x="648" y="-23" type="line"/>
      <point x="892" y="-2"/>
      <point x="1097" y="148"/>
      <point x="1097" y="373" type="curve"/>
      <point x="1097" y="611"/>
      <point x="860" y="729"/>
      <point x="591" y="775" type="curve"/>
      <point x="390" y="811"/>
      <point x="236" y="846"/>
      <point x="236" y="1022" type="curve"/>
      <point x="236" y="1170"/>
      <point x="405" y="1271"/>
    </contour>
  </outline>
</glyph>
<glyph name="ampersand" format="2">
  <advance width="1418"/>
  <unicode hex="0026"/>
  <outline>
    <contour>
      <point x="488" y="-26" type="curve" smooth="yes"/>
      <point x="662" y="-26"/>
      <point x="711" y="27"/>
      <point x="958" y="274" type="curve"/>
      <point x="1232" y="0" type="line"/>
      <point x="1338" y="106" type="line"/>
      <point x="1062" y="381" type="line"/>
      <point x="1181" y="500" type="line"/>
      <point x="1181" y="711" type="line"/>
      <point x="958" y="489" type="line"/>
      <point x="595" y="852" type="line"/>
      <point x="734" y="990"/>
      <point x="774" y="1033"/>
      <point x="774" y="1148" type="curve" smooth="yes"/>
      <point x="774" y="1307"/>
      <point x="645" y="1434"/>
      <point x="488" y="1434" type="curve" smooth="yes"/>
      <point x="335" y="1434"/>
      <point x="204" y="1308"/>
      <point x="204" y="1148" type="curve" smooth="yes"/>
      <point x="204" y="1036"/>
      <point x="239" y="996"/>
      <point x="382" y="852" type="curve"/>
      <point x="139" y="609"/>
      <point x="80" y="556"/>
      <point x="80" y="383" type="curve" smooth="yes"/>
      <point x="80" y="170"/>
      <point x="249" y="-26"/>
    </contour>
    <contour>
      <point x="488" y="124" type="curve" smooth="yes"/>
      <point x="347" y="124"/>
      <point x="231" y="236"/>
      <point x="231" y="381" type="curve" smooth="yes"/>
      <point x="231" y="506"/>
      <point x="272" y="529"/>
      <point x="488" y="746" type="curve"/>
      <point x="852" y="382" type="line"/>
      <point x="643" y="171"/>
      <point x="616" y="124"/>
    </contour>
    <contour>
      <point x="488" y="940" type="curve"/>
      <point x="370" y="1059"/>
      <point x="339" y="1076"/>
      <point x="339" y="1150" type="curve" smooth="yes"/>
      <point x="339" y="1230"/>
      <point x="404" y="1300"/>
      <point x="488" y="1300" type="curve" smooth="yes"/>
      <point x="567" y="1300"/>
      <point x="638" y="1237"/>
      <point x="638" y="1150" type="curve" smooth="yes"/>
      <point x="638" y="1077"/>
      <point x="613" y="1063"/>
    </contour>
  </outline>
</glyph>
<glyph name="asterisk" format="2">
  <advance width="706.5"/>
  <unicode hex="002A"/>
  <outline>
    <contour>
      <point x="215" y="851" type="line"/>
      <point x="338" y="1020" type="line"/>
      <point x="459" y="851" type="line"/>
      <point x="551" y="918" type="line"/>
      <point x="428" y="1085" type="line"/>
      <point x="627" y="1149" type="line"/>
      <point x="592" y="1256" type="line"/>
      <point x="395" y="1193" type="line"/>
      <point x="395" y="1400" type="line"/>
      <point x="282" y="1400" type="line"/>
      <point x="282" y="1193" type="line"/>
      <point x="84" y="1256" type="line"/>
      <point x="50" y="1149" type="line"/>
      <point x="246" y="1085" type="line"/>
      <point x="125" y="918" type="line"/>
    </contour>
  </outline>
</glyph>
<glyph name="zero" format="2">
  <advance width="1193"/>
  <unicode hex="0030"/>
  <outline>
    <contour>
      <point x="598" y="-26" type="curve" smooth="yes"/>
      <point x="930" y="-26"/>
      <point x="1133" y="300"/>
      <point x="1133" y="700" type="curve" smooth="yes"/>
      <point x="1133" y="1101"/>
      <point x="930" y="1426"/>
      <point x="598" y="1426" type="curve" smooth="yes"/>
      <point x="264" y="1426"/>
      <point x="60" y="1101"/>
      <point x="60" y="700" type="curve" smooth="yes"/>
      <point x="60" y="300"/>
      <point x="264" y="-26"/>
    </contour>
    <contour>
      <point x="598" y="124" type="curve" smooth="yes"/>
      <point x="339" y="124"/>
      <point x="203" y="389"/>
      <point x="203" y="700" type="curve" smooth="yes"/>
      <point x="203" y="1006"/>
      <point x="332" y="1276"/>
      <point x="598" y="1276" type="curve" smooth="yes"/>
      <point x="851" y="1276"/>
      <point x="991" y="1025"/>
      <point x="991" y="700" type="curve" smooth="yes"/>
      <point x="991" y="391"/>
      <point x="857" y="124"/>
    </contour>
  </outline>
</glyph>
<glyph name="one" format="2">
  <advance width="542.5"/>
  <unicode hex="0031"/>
  <outline>
    <contour>
      <point x="233" y="0" type="line"/>
      <point x="383" y="0" type="line"/>
      <point x="383" y="1400" type="line"/>
      <point x="123" y="1400" type="line"/>
      <point x="80" y="1250" type="line"/>
      <point x="233" y="1250" type="line"/>
    </contour>
  </outline>
</glyph>
<glyph name="four" format="2">
  <advance width="1097.75"/>
  <unicode hex="0034"/>
  <outline>
    <contour>
      <point x="683" y="0" type="line"/>
      <point x="833" y="0" type="line"/>
      <point x="833" y="388" type="line"/>
      <point x="978" y="388" type="line"/>
      <point x="978" y="538" type="line"/>
      <point x="833" y="538" type="line"/>
      <point x="833" y="1400" type="line"/>
      <point x="645" y="1400" type="line"/>
      <point x="80" y="540" type="line"/>
      <point x="80" y="388" type="line"/>
      <point x="683" y="388" type="line"/>
    </contour>
    <contour>
      <point x="257" y="540" type="line"/>
      <point x="681" y="1187" type="line"/>
      <point x="683" y="538" type="line"/>
    </contour>
  </outline>
</glyph>
<glyph name="eight" format="2">
  <advance width="1056.25"/>
  <unicode hex="0038"/>
  <outline>
    <contour>
      <point x="528" y="-26" type="curve" smooth="yes"/>
      <point x="776" y="-26"/>
      <point x="976" y="161"/>
      <point x="976" y="391" type="curve" smooth="yes"/>
      <point x="976" y="538"/>
      <point x="889" y="668"/>
      <point x="759" y="737" type="curve"/>
      <point x="866" y="800"/>
      <point x="941" y="913"/>
      <point x="941" y="1042" type="curve" smooth="yes"/>
      <point x="941" y="1254"/>
      <point x="755" y="1426"/>
      <point x="528" y="1426" type="curve" smooth="yes"/>
      <point x="301" y="1426"/>
      <point x="114" y="1254"/>
      <point x="114" y="1042" type="curve" smooth="yes"/>
      <point x="114" y="913"/>
      <point x="190" y="800"/>
      <point x="297" y="737" type="curve"/>
      <point x="169" y="668"/>
      <point x="80" y="538"/>
      <point x="80" y="391" type="curve" smooth="yes"/>
      <point x="80" y="160"/>
      <point x="280" y="-26"/>
    </contour>
    <contour>
      <point x="528" y="124" type="curve" smooth="yes"/>
      <point x="370" y="124"/>
      <point x="239" y="243"/>
      <point x="239" y="391" type="curve" smooth="yes"/>
      <point x="239" y="539"/>
      <point x="370" y="658"/>
      <point x="528" y="658" type="curve" smooth="yes"/>
      <point x="688" y="658"/>
      <point x="817" y="539"/>
      <point x="817" y="391" type="curve" smooth="yes"/>
      <point x="817" y="243"/>
      <point x="688" y="124"/>
    </contour>
    <contour>
      <point x="528" y="808" type="curve" smooth="yes"/>
      <point x="387" y="808"/>
      <point x="274" y="913"/>
      <point x="274" y="1042" type="curve" smooth="yes"/>
      <point x="274" y="1171"/>
      <point x="387" y="1276"/>
      <point x="528" y="1276" type="curve" smooth="yes"/>
      <point x="669" y="1276"/>
      <point x="782" y="1171"/>
      <point x="782" y="1042" type="curve" smooth="yes"/>
      <point x="782" y="913"/>
      <point x="669" y="808"/>
    </contour>
  </outline>
</glyph>
<glyph name="colon" format="2">
  <advance width="368.75"/>
  <unicode hex="003A"/>
  <outline>
    <contour>
      <point x="164" y="831" type="curve" smooth="yes"/>
      <point x="211" y="831"/>
      <point x="249" y="869"/>
      <point x="249" y="916" type="curve" smooth="yes"/>
      <point x="249" y="962"/>
      <point x="211" y="1000"/>
      <point x="164" y="1000" type="curve" smooth="yes"/>
      <point x="117" y="1000"/>
      <point x="80" y="962"/>
      <point x="80" y="916" type="curve" smooth="yes"/>
      <point x="80" y="869"/>
      <point x="117" y="831"/>
    </contour>
    <contour>
      <point x="164" y="-26" type="curve" smooth="yes"/>
      <point x="211" y="-26"/>
      <point x="249" y="11"/>
      <point x="249" y="59" type="curve" smooth="yes"/>
      <point x="249" y="105"/>
      <point x="211" y="143"/>
      <point x="164" y="143" type="curve" smooth="yes"/>
      <point x="117" y="143"/>
      <point x="80" y="105"/>
      <point x="80" y="59" type="curve" smooth="yes"/>
      <point x="80" y="11"/>
      <point x="117" y="-26"/>
    </contour>
  </outline>
</glyph>
<glyph name="A" format="2">
  <advance width="1362.75"/>
  <unicode hex="0041"/>
  <outline>
    <contour>
      <point x="589" y="1400" type="line"/>
      <point x="80" y="0" type="line"/>
      <point x="239" y="0" type="line"/>
      <point x="347" y="295" type="line"/>
      <point x="1016" y="295" type="line"/>
      <point x="1124" y="0" type="line"/>
      <point x="1283" y="0" type="line"/>
      <point x="774" y="1400" type="line"/>
    </contour>
    <contour>
      <point x="402" y="445" type="line"/>
      <point x="681" y="1213" type="line"/>
      <point x="961" y="445" type="line"/>
    </contour>
  </outline>
</glyph>
<glyph name="B" format="2">
  <advance width="1121"/>
  <unicode hex="0042"/>
  <outline>
    <contour>
      <point x="120" y="0" type="line"/>
      <point x="658" y="0" type="line" smooth="yes"/>
      <point x="869" y="0"/>
      <point x="1041" y="159"/>
      <point x="1041" y="395" type="curve" smooth="yes"/>
      <point x="1041" y="544"/>
      <point x="973" y="727"/>
      <point x="806" y="772" type="curve"/>
      <point x="893" y="797"/>
      <point x="968" y="917"/>
      <point x="968" y="1043" type="curve" smooth="yes"/>
      <point x="968" y="1269"/>
      <point x="803" y="1399"/>
      <point x="596" y="1399" type="curve" smooth="yes"/>
      <point x="120" y="1399" type="line"/>
    </contour>
    <contour>
      <point x="270" y="133" type="line"/>
      <point x="270" y="697" type="line"/>
      <point x="646" y="697" type="line" smooth="yes"/>
      <point x="789" y="697"/>
      <point x="904" y="562"/>
      <point x="904" y="418" type="curve" smooth="yes"/>
      <point x="904" y="254"/>
      <point x="789" y="133"/>
      <point x="646" y="133" type="curve" smooth="yes"/>
    </contour>
    <contour>
      <point x="270" y="828" type="line"/>
      <point x="270" y="1265" type="line"/>
      <point x="583" y="1265" type="line" smooth="yes"/>
      <point x="712" y="1265"/>
      <point x="818" y="1193"/>
      <point x="818" y="1044" type="curve" smooth="yes"/>
      <point x="818" y="907"/>
      <point x="712" y="828"/>
      <point x="583" y="828" type="curve" smooth="yes"/>
    </contour>
  </outline>
</glyph>
<glyph name="I" format="2">
  <advance width="450"/>
  <unicode hex="0049"/>
  <outline>
    <contour>
      <point x="150" y="0" type="line"/>
      <point x="300" y="0" type="line"/>
      <point x="300" y="1400" type="line"/>
      <point x="150" y="1400" type="line"/>
    </contour>
  </outline>
</glyph>
<glyph name="Q" format="2">
  <advance width="1555.25"/>
  <unicode hex="0051"/>
  <outline>
    <contour>
      <point x="1367" y="-26" type="line"/>
      <point x="1473" y="80" type="line"/>
      <point x="1304" y="248" type="line"/>
      <point x="1401" y="372"/>
      <point x="1459" y="530"/>
      <point x="1459" y="703" type="curve" smooth="yes"/>
      <point x="1459" y="1103"/>
      <point x="1150" y="1429"/>
      <point x="770" y="1429" type="curve" smooth="yes"/>
      <point x="389" y="1429"/>
      <point x="80" y="1103"/>
      <point x="80" y="703" type="curve" smooth="yes"/>
      <point x="80" y="302"/>
      <point x="389" y="-23"/>
      <point x="770" y="-23" type="curve" smooth="yes"/>
      <point x="933" y="-23"/>
      <point x="1084" y="38"/>
      <point x="1201" y="140" type="curve"/>
    </contour>
    <contour>
      <point x="770" y="127" type="curve" smooth="yes"/>
      <point x="474" y="127"/>
      <point x="230" y="386"/>
      <point x="230" y="703" type="curve" smooth="yes"/>
      <point x="230" y="1015"/>
      <point x="470" y="1279"/>
      <point x="770" y="1279" type="curve" smooth="yes"/>
      <point x="1065" y="1279"/>
      <point x="1309" y="1020"/>
      <point x="1309" y="703" type="curve" smooth="yes"/>
      <point x="1309" y="578"/>
      <point x="1268" y="456"/>
      <point x="1194" y="359" type="curve"/>
      <point x="998" y="555" type="line"/>
      <point x="893" y="448" type="line"/>
      <point x="1092" y="249" type="line"/>
      <point x="1005" y="172"/>
      <point x="887" y="127"/>
    </contour>
  </outline>
</glyph>
<glyph name="X" format="2">
  <advance width="1331"/>
  <unicode hex="0058"/>
  <outline>
    <contour>
      <point x="60" y="0" type="line"/>
      <point x="247" y="0" type="line"/>
      <point x="666" y="576" type="line"/>
      <point x="1085" y="0" type="line"/>
      <point x="1271" y="0" type="line"/>
      <point x="759" y="704" type="line"/>
      <point x="1267" y="1402" type="line"/>
      <point x="1082" y="1402" type="line"/>
      <point x="666" y="831" type="line"/>
      <point x="249" y="1402" type="line"/>
      <point x="64" y="1402" type="line"/>
      <point x="573" y="704" type="line"/>
    </contour>
  </outline>
</glyph>
<glyph name="backslash" format="2">
  <advance width="715.25"/>
  <unicode hex="005C"/>
  <outline>
    <contour>
      <point x="485" y="-112" type="line"/>
      <point x="635" y="-112" type="line"/>
      <point x="230" y="1400" type="line"/>
      <point x="80" y="1400" type="line"/>
    </contour>
  </outline>
</glyph>
<glyph name="asciicircum" format="2">
  <advance width="802"/>
  <unicode hex="005E"/>
  <outline>
    <contour>
      <point x="80" y="1000" type="line"/>
      <point x="239" y="1000" type="line"/>
      <point x="401" y="1444" type="line"/>
      <point x="562" y="1000" type="line"/>
      <point x="722" y="1000" type="line"/>
      <point x="486" y="1650" type="line"/>
      <point x="316" y="1650" type="line"/>
    </contour>
  </outline>
</glyph>
<glyph name="b" format="2">
  <advance width="1206.25"/>
  <unicode hex="0062"/>
  <outline>
    <contour>
      <point x="620" y="1028" type="curve"/>
      <point x="459" y="1028"/>
      <point x="338" y="944"/>
      <point x="270" y="821" type="curve"/>
      <point x="270" y="1500" type="line"/>
      <point x="120" y="1500" type="line"/>
      <point x="120" y="0" type="line"/>
      <point x="270" y="0" type="line"/>
      <point x="270" y="182" type="line"/>
      <point x="338" y="58"/>
      <point x="459" y="-26"/>
      <point x="620" y="-26" type="curve"/>
      <point x="910" y="-26"/>
      <point x="1146" y="210"/>
      <point x="1146" y="501" type="curve"/>
      <point x="1146" y="792"/>
      <point x="910" y="1028"/>
    </contour>
    <contour>
      <point x="618" y="120" type="curve"/>
      <point x="414" y="120"/>
      <point x="282" y="289"/>
      <point x="282" y="501" type="curve"/>
      <point x="282" y="710"/>
      <point x="411" y="883"/>
      <point x="618" y="883" type="curve"/>
      <point x="821" y="883"/>
      <point x="993" y="715"/>
      <point x="993" y="501" type="curve"/>
      <point x="993" y="291"/>
      <point x="826" y="120"/>
    </contour>
  </outline>
</glyph>
<glyph name="c" format="2">
  <advance width="1018.75"/>
  <unicode hex="0063"/>
  <outline>
    <contour>
      <point x="825" y="256" type="line"/>
      <point x="763" y="178"/>
      <point x="666" y="124"/>
      <point x="560" y="124" type="curve"/>
      <point x="366" y="124"/>
      <point x="210" y="295"/>
      <point x="210" y="500" type="curve"/>
      <point x="210" y="704"/>
      <point x="362" y="878"/>
      <point x="560" y="878" type="curve"/>
      <point x="658" y="878"/>
      <point x="758" y="831"/>
      <point x="825" y="746" type="curve"/>
      <point x="959" y="818" type="line"/>
      <point x="868" y="946"/>
      <point x="723" y="1028"/>
      <point x="560" y="1028" type="curve"/>
      <point x="284" y="1028"/>
      <point x="60" y="792"/>
      <point x="60" y="500" type="curve"/>
      <point x="60" y="210"/>
      <point x="284" y="-26"/>
      <point x="560" y="-26" type="curve"/>
      <point x="723" y="-26"/>
      <point x="868" y="56"/>
      <point x="959" y="183" type="curve"/>
    </contour>
  </outline>
</glyph>
<glyph name="f" format="2">
  <advance width="673.25"/>
  <unicode hex="0066"/>
  <outline>
    <contour>
      <point x="334" y="1256" type="line"/>
      <point x="334" y="1321"/>
      <point x="388" y="1374"/>
      <point x="453" y="1374" type="curve"/>
      <point x="487" y="1374"/>
      <point x="520" y="1359"/>
      <point x="541" y="1333" type="curve"/>
      <point x="649" y="1439" type="line"/>
      <point x="596" y="1495"/>
      <point x="525" y="1524"/>
      <point x="453" y="1524" type="curve"/>
      <point x="304" y="1524"/>
      <point x="184" y="1404"/>
      <point x="184" y="1256" type="curve"/>
      <point x="184" y="1000" type="line"/>
      <point x="50" y="1000" type="line"/>
      <point x="50" y="850" type="line"/>
      <point x="184" y="850" type="line"/>
      <point x="184" y="0" type="line"/>
      <point x="334" y="0" type="line"/>
      <point x="334" y="850" type="line"/>
      <point x="632" y="850" type="line"/>
      <point x="632" y="1000" type="line"/>
      <point x="334" y="1000" type="line"/>
    </contour>
  </outline>
</glyph>
<glyph name="h" format="2">
  <advance width="1090.5"/>
  <unicode hex="0068"/>
  <outline>
    <contour>
      <point x="1011" y="535" type="line"/>
      <point x="1007" y="801"/>
      <point x="831" y="1027"/>
      <point x="573" y="1027" type="curve"/>
      <point x="443" y="1027"/>
      <point x="336" y="971"/>
      <point x="270" y="849" type="curve"/>
      <point x="270" y="1500" type="line"/>
      <point x="120" y="1500" type="line"/>
      <point x="120" y="0" type="line"/>
      <point x="271" y="0" type="line"/>
      <point x="271" y="531" type="line"/>
      <point x="271" y="725"/>
      <point x="389" y="882"/>
      <point x="561" y="882" type="curve"/>
      <point x="726" y="882"/>
      <point x="861" y="725"/>
      <point x="861" y="531" type="curve"/>
      <point x="861" y="0" type="line"/>
      <point x="1011" y="0" type="line"/>
    </contour>
  </outline>
</glyph>
<glyph name="q" format="2">
  <advance width="1225.5"/>
  <unicode hex="0071"/>
  <outline>
    <contour>
      <point x="606" y="-28" type="curve"/>
      <point x="768" y="-28"/>
      <point x="887" y="56"/>
      <point x="956" y="180" type="curve"/>
      <point x="956" y="-500" type="line"/>
      <point x="1106" y="-500" type="line"/>
      <point x="1106" y="1000" type="line"/>
      <point x="956" y="1000" type="line"/>
      <point x="956" y="819" type="line"/>
      <point x="887" y="942"/>
      <point x="768" y="1026"/>
      <point x="606" y="1026" type="curve"/>
      <point x="316" y="1026"/>
      <point x="80" y="790"/>
      <point x="80" y="500" type="curve"/>
      <point x="80" y="208"/>
      <point x="316" y="-28"/>
    </contour>
    <contour>
      <point x="608" y="881" type="curve"/>
      <point x="813" y="881"/>
      <point x="943" y="711"/>
      <point x="943" y="500" type="curve"/>
      <point x="943" y="291"/>
      <point x="815" y="118"/>
      <point x="608" y="118" type="curve"/>
      <point x="405" y="118"/>
      <point x="233" y="286"/>
      <point x="233" y="500" type="curve"/>
      <point x="233" y="709"/>
      <point x="400" y="881"/>
    </contour>
  </outline>
</glyph>
<glyph name="w" format="2">
  <advance width="1633"/>
  <unicode hex="0077"/>
  <outline>
    <contour>
      <point x="548" y="0" type="line"/>
      <point x="815" y="798" type="line"/>
      <point x="1084" y="0" type="line"/>
      <point x="1238" y="0" type="line"/>
      <point x="1573" y="1001" type="line"/>
      <point x="1425" y="1001" type="line"/>
      <point x="1160" y="209" type="line"/>
      <point x="895" y="1001" type="line"/>
      <point x="738" y="1001" type="line"/>
      <point x="473" y="209" type="line"/>
      <point x="207" y="1001" type="line"/>
      <point x="60" y="1001" type="line"/>
      <point x="395" y="0" type="line"/>
    </contour>
  </outline>
</glyph>
<glyph name="y" format="2">
  <advance width="1043.5"/>
  <unicode hex="0079"/>
  <outline>
    <contour>
      <point x="805" y="1000" type="line"/>
      <point x="514" y="206" type="line"/>
      <point x="244" y="1000" type="line"/>
      <point x="80" y="1000" type="line"/>
      <point x="439" y="1" type="line"/>
      <point x="258" y="-500" type="line"/>
      <point x="417" y="-500" type="line"/>
      <point x="964" y="1000" type="line"/>
    </contour>
  </outline>
</glyph>
<glyph name="asciitilde" format="2">
  <advance width="1231.5"/>
  <unicode hex="007E"/>
  <outline>
    <contour>
      <point x="903" y="421" type="curve" smooth="yes"/>
      <point x="1066" y="421"/>
      <point x="1182" y="569"/>
      <point x="1144" y="734" type="curve"/>
      <point x="998" y="725" type="line"/>
      <point x="1016" y="640"/>
      <point x="959" y="562"/>
      <point x="872" y="562" type="curve" smooth="yes"/>
      <point x="724" y="562"/>
      <point x="508" y="779"/>
      <point x="345" y="779" type="curve" smooth="yes"/>
      <point x="177" y="779"/>
      <point x="51" y="620"/>
      <point x="86" y="464" type="curve"/>
      <point x="233" y="469" type="line"/>
      <point x="215" y="555"/>
      <point x="270" y="637"/>
      <point x="356" y="635" type="curve" smooth="yes"/>
      <point x="491" y="637"/>
      <point x="734" y="421"/>
    </contour>
  </outline>
</glyph>
<glyph name="yen" format="2">
  <advance width="1239.5"/>
  <unicode hex="00A5"/>
  <outline>
    <contour>
      <point x="545" y="0" type="line"/>
      <point x="695" y="0" type="line"/>
      <point x="695" y="188" type="line"/>
      <point x="984" y="188" type="line"/>
      <point x="984" y="301" type="line"/>
      <point x="695" y="301" type="line"/>
      <point x="695" y="454" type="line"/>
      <point x="984" y="454" type="line"/>
      <point x="984" y="567" type="line"/>
      <point x="695" y="567" type="line"/>
      <point x="695" y="634" type="line"/>
      <point x="1167" y="1400" type="line"/>
      <point x="991" y="1400" type="line"/>
      <point x="620" y="797" type="line"/>
      <point x="249" y="1400" type="line"/>
      <point x="73" y="1400" type="line"/>
      <point x="545" y="634" type="line"/>
      <point x="545" y="567" type="line"/>
      <point x="256" y="567" type="line"/>
      <point x="256" y="454" type="line"/>
      <point x="545" y="454" type="line"/>
      <point x="545" y="301" type="line"/>
      <point x="256" y="301" type="line"/>
      <point x="256" y="188" type="line"/>
      <point x="545" y="188" type="line"/>
    </contour>
  </outline>
</glyph>
<glyph name="section" format="2">
  <advance width="1078.5"/>
  <unicode hex="00A7"/>
  <outline>
    <contour>
      <point x="545" y="-399" type="curve" smooth="yes"/>
      <point x="736" y="-399"/>
      <point x="911" y="-283"/>
      <point x="911" y="-100" type="curve" smooth="yes"/>
      <point x="911" y="19"/>
      <point x="842" y="93"/>
      <point x="701" y="128" type="curve"/>
      <point x="851" y="183"/>
      <point x="959" y="333"/>
      <point x="959" y="499" type="curve" smooth="yes"/>
      <point x="959" y="745"/>
      <point x="798" y="887"/>
      <point x="551" y="939" type="curve" smooth="yes"/>
      <point x="412" y="970"/>
      <point x="311" y="995"/>
      <point x="311" y="1103" type="curve" smooth="yes"/>
      <point x="311" y="1210"/>
      <point x="419" y="1268"/>
      <point x="544" y="1266" type="curve" smooth="yes"/>
      <point x="642" y="1264"/>
      <point x="747" y="1211"/>
      <point x="782" y="1134" type="curve"/>
      <point x="903" y="1205" type="line"/>
      <point x="841" y="1323"/>
      <point x="696" y="1399"/>
      <point x="534" y="1399" type="curve" smooth="yes"/>
      <point x="342" y="1399"/>
      <point x="168" y="1283"/>
      <point x="168" y="1100" type="curve" smooth="yes"/>
      <point x="168" y="980"/>
      <point x="235" y="906"/>
      <point x="377" y="872" type="curve"/>
      <point x="225" y="815"/>
      <point x="120" y="665"/>
      <point x="120" y="499" type="curve" smooth="yes"/>
      <point x="120" y="266"/>
      <point x="286" y="106"/>
      <point x="525" y="62" type="curve" smooth="yes"/>
      <point x="662" y="34"/>
      <point x="768" y="6"/>
      <point x="768" y="-103" type="curve" smooth="yes"/>
      <point x="768" y="-210"/>
      <point x="660" y="-268"/>
      <point x="535" y="-266" type="curve" smooth="yes"/>
      <point x="437" y="-264"/>
      <point x="332" y="-211"/>
      <point x="297" y="-134" type="curve"/>
      <point x="176" y="-205" type="line"/>
      <point x="238" y="-323"/>
      <point x="382" y="-399"/>
    </contour>
    <contour>
      <point x="545" y="211" type="curve" smooth="yes"/>
      <point x="392" y="211"/>
      <point x="256" y="336"/>
      <point x="256" y="499" type="curve" smooth="yes"/>
      <point x="256" y="657"/>
      <point x="383" y="789"/>
      <point x="531" y="789" type="curve" smooth="yes"/>
      <point x="684" y="789"/>
      <point x="823" y="677"/>
      <point x="823" y="495" type="curve" smooth="yes"/>
      <point x="823" y="343"/>
      <point x="697" y="211"/>
    </contour>
  </outline>
</glyph>
<glyph name="copyright" format="2">
  <advance width="1813.25"/>
  <unicode hex="00A9"/>
  <outline>
    <contour>
      <point x="906" y="-227" type="curve" smooth="yes"/>
      <point x="1363" y="-227"/>
      <point x="1733" y="143"/>
      <point x="1733" y="600" type="curve" smooth="yes"/>
      <point x="1733" y="1057"/>
      <point x="1363" y="1426"/>
      <point x="906" y="1426" type="curve" smooth="yes"/>
      <point x="450" y="1426"/>
      <point x="80" y="1057"/>
      <point x="80" y="600" type="curve" smooth="yes"/>
      <point x="80" y="143"/>
      <point x="450" y="-227"/>
    </contour>
    <contour>
      <point x="906" y="-77" type="curve" smooth="yes"/>
      <point x="540" y="-77"/>
      <point x="230" y="219"/>
      <point x="230" y="600" type="curve" smooth="yes"/>
      <point x="230" y="969"/>
      <point x="530" y="1274"/>
      <point x="906" y="1276" type="curve" smooth="yes"/>
      <point x="1277" y="1279"/>
      <point x="1583" y="974"/>
      <point x="1583" y="600" type="curve" smooth="yes"/>
      <point x="1583" y="233"/>
      <point x="1286" y="-77"/>
    </contour>
    <component base="c" xOffset="354" yOffset="100"/>
  </outline>
</glyph>
<glyph name="degree" format="2">
  <advance width="724.75"/>
  <unicode hex="00B0"/>
  <outline>
    <contour>
      <point x="363" y="798" type="curve" smooth="yes"/>
      <point x="516" y="798"/>
      <point x="645" y="921"/>
      <point x="645" y="1080" type="curve" smooth="yes"/>
      <point x="645" y="1232"/>
      <point x="522" y="1362"/>
      <point x="363" y="1362" type="curve" smooth="yes"/>
      <point x="206" y="1362"/>
      <point x="80" y="1234"/>
      <point x="80" y="1080" type="curve" smooth="yes"/>
      <point x="80" y="928"/>
      <point x="204" y="798"/>
    </contour>
    <contour>
      <point x="363" y="948" type="curve" smooth="yes"/>
      <point x="289" y="948"/>
      <point x="230" y="1006"/>
      <point x="230" y="1080" type="curve" smooth="yes"/>
      <point x="230" y="1154"/>
      <point x="289" y="1212"/>
      <point x="363" y="1212" type="curve" smooth="yes"/>
      <point x="436" y="1212"/>
      <point x="495" y="1154"/>
      <point x="495" y="1080" type="curve" smooth="yes"/>
      <point x="495" y="1006"/>
      <point x="436" y="948"/>
    </contour>
  </outline>
</glyph>
<glyph name="Thorn" format="2">
  <advance width="1052.5"/>
  <unicode hex="00DE"/>
  <outline>
    <contour>
      <point x="120" y="0" type="line"/>
      <point x="270" y="0" type="line"/>
      <point x="270" y="290" type="line"/>
      <point x="573" y="290" type="line" smooth="yes"/>
      <point x="790" y="290"/>
      <point x="973" y="468"/>
      <point x="973" y="700" type="curve" smooth="yes"/>
      <point x="973" y="930"/>
      <point x="797" y="1111"/>
      <point x="573" y="1111" type="curve" smooth="yes"/>
      <point x="270" y="1111" type="line"/>
      <point x="270" y="1400" type="line"/>
      <point x="120" y="1400" type="line"/>
    </contour>
    <contour>
      <point x="270" y="440" type="line"/>
      <point x="270" y="977" type="line"/>
      <point x="560" y="977" type="line" smooth="yes"/>
      <point x="704" y="977"/>
      <point x="823" y="862"/>
      <point x="823" y="708" type="curve" smooth="yes"/>
      <point x="823" y="555"/>
      <point x="704" y="440"/>
      <point x="560" y="440" type="curve" smooth="yes"/>
    </contour>
  </outline>
</glyph>
<glyph name="ae" format="2">
  <advance width="1873.625"/>
  <unicode hex="00E6"/>
  <outline>
    <contour>
      <point x="477" y="-10" type="curve" smooth="yes"/>
      <point x="594" y="-10" type="line" smooth="yes"/>
      <point x="749" y="-10"/>
      <point x="867" y="82"/>
      <point x="914" y="216" type="curve"/>
      <point x="999" y="81"/>
      <point x="1146" y="-10"/>
      <point x="1314" y="-10" type="curve" smooth="yes"/>
      <point x="1514" y="-10"/>
      <point x="1686" y="114"/>
      <point x="1766" y="292" type="curve"/>
      <point x="1614" y="328" type="line"/>
      <point x="1551" y="211"/>
      <point x="1442" y="140"/>
      <point x="1314" y="140" type="curve" smooth="yes"/>
      <point x="1135" y="141"/>
      <point x="996" y="278"/>
      <point x="973" y="461" type="curve"/>
      <point x="1809" y="461" type="line"/>
      <point x="1828" y="790"/>
      <point x="1612" y="1044"/>
      <point x="1314" y="1044" type="curve" smooth="yes"/>
      <point x="1139" y="1044"/>
      <point x="986" y="945"/>
      <point x="905" y="798" type="curve"/>
      <point x="854" y="943"/>
      <point x="754" y="1044"/>
      <point x="538" y="1044" type="curve" smooth="yes"/>
      <point x="382" y="1044"/>
      <point x="227" y="1010"/>
      <point x="144" y="869" type="curve"/>
      <point x="274" y="794" type="line"/>
      <point x="320" y="871"/>
      <point x="419" y="905"/>
      <point x="538" y="905" type="curve" smooth="yes"/>
      <point x="765" y="905"/>
      <point x="799" y="763"/>
      <point x="815" y="581" type="curve"/>
      <point x="401" y="581" type="line" smooth="yes"/>
      <point x="228" y="581"/>
      <point x="80" y="511"/>
      <point x="74" y="328" type="curve" smooth="yes"/>
      <point x="76" y="102"/>
      <point x="258" y="-10"/>
    </contour>
    <contour>
      <point x="530" y="95" type="curve" smooth="yes"/>
      <point x="359" y="95"/>
      <point x="223" y="150"/>
      <point x="220" y="315" type="curve" smooth="yes"/>
      <point x="224" y="433"/>
      <point x="322" y="461"/>
      <point x="465" y="461" type="curve" smooth="yes"/>
      <point x="812" y="461" type="line"/>
      <point x="812" y="369" type="line" smooth="yes"/>
      <point x="812" y="299"/>
      <point x="785" y="95"/>
    </contour>
    <contour>
      <point x="969" y="581" type="line"/>
      <point x="989" y="764"/>
      <point x="1133" y="909"/>
      <point x="1314" y="909" type="curve" smooth="yes"/>
      <point x="1494" y="909"/>
      <point x="1642" y="759"/>
      <point x="1658" y="581" type="curve"/>
    </contour>
  </outline>
</glyph>
<glyph name="OE" format="2">
  <advance width="2164.75"/>
  <unicode hex="0152"/>
  <outline>
    <contour>
      <point x="770" y="-26" type="curve" smooth="yes"/>
      <point x="1000" y="-26"/>
      <point x="1202" y="103"/>
      <point x="1312" y="292" type="curve"/>
      <point x="1312" y="0" type="line"/>
      <point x="2065" y="0" type="line"/>
      <point x="2065" y="150" type="line"/>
      <point x="1462" y="150" type="line"/>
      <point x="1462" y="625" type="line"/>
      <point x="1969" y="625" type="line"/>
      <point x="1969" y="775" type="line"/>
      <point x="1462" y="775" type="line"/>
      <point x="1462" y="1250" type="line"/>
      <point x="2065" y="1250" type="line"/>
      <point x="2065" y="1400" type="line"/>
      <point x="1312" y="1400" type="line"/>
      <point x="1312" y="1109" type="line"/>
      <point x="1202" y="1297"/>
      <point x="1000" y="1426"/>
      <point x="770" y="1426" type="curve" smooth="yes"/>
      <point x="390" y="1426"/>
      <point x="80" y="1100"/>
      <point x="80" y="700" type="curve" smooth="yes"/>
      <point x="80" y="300"/>
      <point x="390" y="-26"/>
    </contour>
    <contour>
      <point x="770" y="124" type="curve" smooth="yes"/>
      <point x="472" y="124"/>
      <point x="230" y="384"/>
      <point x="230" y="700" type="curve" smooth="yes"/>
      <point x="230" y="1013"/>
      <point x="470" y="1276"/>
      <point x="770" y="1276" type="curve" smooth="yes"/>
      <point x="1068" y="1276"/>
      <point x="1310" y="1015"/>
      <point x="1310" y="700" type="curve" smooth="yes"/>
      <point x="1310" y="387"/>
      <point x="1070" y="124"/>
    </contour>
  </outline>
</glyph>
<glyph name="breve" format="2">
  <advance width="1144"/>
  <unicode hex="02D8"/>
  <outline>
    <contour>
      <point x="572" y="1128" type="curve" smooth="yes"/>
      <point x="751" y="1128"/>
      <point x="904" y="1274"/>
      <point x="904" y="1460" type="curve"/>
      <point x="799" y="1460" type="line"/>
      <point x="799" y="1334"/>
      <point x="696" y="1233"/>
      <point x="572" y="1233" type="curve" smooth="yes"/>
      <point x="452" y="1233"/>
      <point x="345" y="1331"/>
      <point x="345" y="1460" type="curve"/>
      <point x="240" y="1460" type="line"/>
      <point x="240" y="1278"/>
      <point x="390" y="1128"/>
    </contour>
  </outline>
</glyph>
<glyph name="dotaccentcomb" format="2">
  <unicode hex="0307"/>
  <outline>
    <contour>
      <point x="486" y="1190" type="curve" smooth="yes"/>
      <point x="532" y="1190"/>
      <point x="570" y="1226"/>
      <point x="570" y="1274" type="curve" smooth="yes"/>
      <point x="570" y="1322"/>
      <point x="532" y="1358"/>
      <point x="486" y="1358" type="curve" smooth="yes"/>
      <point x="437" y="1358"/>
      <point x="400" y="1322"/>
      <point x="400" y="1274" type="curve" smooth="yes"/>
      <point x="400" y="1226"/>
      <point x="437" y="1190"/>
    </contour>
  </outline>
</glyph>
<glyph name="ringcomb" format="2">
  <unicode hex="030A"/>
  <outline>
    <contour>
      <point x="561" y="1120" type="curve" smooth="yes"/>
      <point x="650" y="1120"/>
      <point x="723" y="1192"/>
      <point x="723" y="1283" type="curve" smooth="yes"/>
      <point x="723" y="1370"/>
      <point x="650" y="1443"/>
      <point x="561" y="1443" type="curve" smooth="yes"/>
      <point x="473" y="1443"/>
      <point x="400" y="1370"/>
      <point x="400" y="1283" type="curve" smooth="yes"/>
      <point x="400" y="1194"/>
      <point x="473" y="1120"/>
    </contour>
    <contour>
      <point x="561" y="1191" type="curve" smooth="yes"/>
      <point x="511" y="1191"/>
      <point x="471" y="1231"/>
      <point x="471" y="1283" type="curve" smooth="yes"/>
      <point x="471" y="1331"/>
      <point x="511" y="1371"/>
      <point x="561" y="1371" type="curve" smooth="yes"/>
      <point x="611" y="1371"/>
      <point x="651" y="1331"/>
      <point x="651" y="1283" type="curve" smooth="yes"/>
      <point x="651" y="1231"/>
      <point x="611" y="1191"/>
    </contour>
  </outline>
</glyph>
<glyph name="daggerdbl" format="2">
  <advance width="796"/>
  <unicode hex="2021"/>
  <outline>
    <contour>
      <point x="80" y="777" type="line"/>
      <point x="323" y="777" type="line"/>
      <point x="323" y="560" type="line"/>
      <point x="473" y="560" type="line"/>
      <point x="473" y="777" type="line"/>
      <point x="716" y="777" type="line"/>
      <point x="716" y="925" type="line"/>
      <point x="473" y="925" type="line"/>
      <point x="473" y="1125" type="line"/>
      <point x="716" y="1125" type="line"/>
      <point x="716" y="1275" type="line"/>
      <point x="473" y="1275" type="line"/>
      <point x="473" y="1500" type="line"/>
      <point x="323" y="1500" type="line"/>
      <point x="323" y="1275" type="line"/>
      <point x="80" y="1275" type="line"/>
      <point x="80" y="1125" type="line"/>
      <point x="323" y="1125" type="line"/>
      <point x="323" y="925" type="line"/>
      <point x="80" y="925" type="line"/>
    </contour>
  </outline>
</glyph>
<glyph name="sixsuperior" format="2">
  <advance width="706"/>
  <unicode hex="2076"/>
  <outline>
    <contour>
      <point x="329" y="798" type="curve" smooth="yes"/>
      <point x="453" y="798"/>
      <point x="562" y="884"/>
      <point x="562" y="1018" type="curve" smooth="yes"/>
      <point x="562" y="1146"/>
      <point x="454" y="1254"/>
      <point x="315" y="1245" type="curve"/>
      <point x="432" y="1446" type="line"/>
      <point x="306" y="1446" type="line"/>
      <point x="126" y="1138"/>
      <point x="96" y="1095"/>
      <point x="96" y="1019" type="curve" smooth="yes"/>
      <point x="96" y="893"/>
      <point x="195" y="798"/>
    </contour>
    <contour>
      <point x="329" y="902" type="curve" smooth="yes"/>
      <point x="264" y="902"/>
      <point x="208" y="943"/>
      <point x="205" y="1011" type="curve" smooth="yes"/>
      <point x="201" y="1081"/>
      <point x="254" y="1143"/>
      <point x="329" y="1143" type="curve" smooth="yes"/>
      <point x="390" y="1143"/>
      <point x="450" y="1097"/>
      <point x="453" y="1025" type="curve" smooth="yes"/>
      <point x="457" y="954"/>
      <point x="400" y="902"/>
    </contour>
  </outline>
</glyph>
<glyph name="sevensuperior" format="2">
  <advance width="639.75"/>
  <unicode hex="2077"/>
  <outline>
    <contour>
      <point x="144" y="818" type="line"/>
      <point x="268" y="818" type="line"/>
      <point x="568" y="1342" type="line"/>
      <point x="568" y="1448" type="line"/>
      <point x="120" y="1448" type="line"/>
      <point x="120" y="1340" type="line"/>
      <point x="443" y="1340" type="line"/>
    </contour>
  </outline>
</glyph>
<glyph name="zeroinferior" format="2">
  <advance width="648"/>
  <unicode hex="2080"/>
  <outline>
    <contour>
      <point x="324" y="-31" type="curve"/>
      <point x="463" y="-31"/>
      <point x="576" y="115"/>
      <point x="576" y="307" type="curve"/>
      <point x="576" y="498"/>
      <point x="463" y="646"/>
      <point x="324" y="646" type="curve"/>
      <point x="185" y="646"/>
      <point x="72" y="498"/>
      <point x="72" y="307" type="curve"/>
      <point x="72" y="115"/>
      <point x="185" y="-31"/>
    </contour>
    <contour>
      <point x="324" y="77" type="curve"/>
      <point x="237" y="77"/>
      <point x="180" y="194"/>
      <point x="180" y="307" type="curve"/>
      <point x="180" y="414"/>
      <point x="233" y="538"/>
      <point x="324" y="538" type="curve"/>
      <point x="410" y="538"/>
      <point x="468" y="420"/>
      <point x="468" y="307" type="curve"/>
      <point x="468" y="203"/>
      <point x="413" y="77"/>
    </contour>
  </outline>
</glyph>
<glyph name="oneinferior" format="2">
  <advance width="425.375"/>
  <unicode hex="2081"/>
  <outline>
    <contour>
      <point x="173" y="0" type="line"/>
      <point x="281" y="0" type="line"/>
      <point x="281" y="631" type="line"/>
      <point x="111" y="631" type="line"/>
      <point x="96" y="523" type="line"/>
      <point x="173" y="523" type="line"/>
    </contour>
  </outline>
</glyph>
<glyph name="nineinferior" format="2">
  <advance width="659.25"/>
  <unicode hex="2089"/>
  <outline>
    <contour>
      <point x="201" y="0" type="line"/>
      <point x="325" y="0" type="line"/>
      <point x="507" y="314" type="line"/>
      <point x="598" y="470"/>
      <point x="483" y="655"/>
      <point x="306" y="655" type="curve" smooth="yes"/>
      <point x="208" y="655"/>
      <point x="119" y="598"/>
      <point x="92" y="502" type="curve" smooth="yes"/>
      <point x="28" y="355"/>
      <point x="153" y="183"/>
      <point x="318" y="204" type="curve"/>
    </contour>
    <contour>
      <point x="306" y="305" type="curve" smooth="yes"/>
      <point x="256" y="305"/>
      <point x="197" y="337"/>
      <point x="184" y="403" type="curve" smooth="yes"/>
      <point x="169" y="479"/>
      <point x="225" y="547"/>
      <point x="306" y="547" type="curve" smooth="yes"/>
      <point x="358" y="547"/>
      <point x="414" y="516"/>
      <point x="428" y="456" type="curve" smooth="yes"/>
      <point x="443" y="377"/>
      <point x="384" y="305"/>
    </contour>
  </outline>
</glyph>
<glyph name="southWestArrow" format="2">
  <advance width="1070.75"/>
  <unicode hex="2199"/>
  <outline>
    <contour>
      <point x="80" y="295" type="line"/>
      <point x="785" y="295" type="line"/>
      <point x="785" y="445" type="line"/>
      <point x="336" y="445" type="line"/>
      <point x="991" y="1099" type="line"/>
      <point x="885" y="1205" type="line"/>
      <point x="230" y="551" type="line"/>
      <point x="230" y="1000" type="line"/>
      <point x="80" y="1000" type="line"/>
    </contour>
  </outline>
</glyph>
<glyph name="emptyset" format="2">
  <advance width="1160"/>
  <unicode hex="2205"/>
  <outline>
    <contour>
      <point x="331" y="-57" type="line"/>
      <point x="377" y="22" type="line"/>
      <point x="439" y="-8"/>
      <point x="507" y="-26"/>
      <point x="580" y="-26" type="curve" smooth="yes"/>
      <point x="856" y="-26"/>
      <point x="1080" y="210"/>
      <point x="1080" y="500" type="curve" smooth="yes"/>
      <point x="1080" y="669"/>
      <point x="1007" y="817"/>
      <point x="892" y="913" type="curve"/>
      <point x="941" y="997" type="line"/>
      <point x="830" y="1061" type="line"/>
      <point x="783" y="982" type="line"/>
      <point x="723" y="1011"/>
      <point x="653" y="1028"/>
      <point x="580" y="1028" type="curve" smooth="yes"/>
      <point x="304" y="1028"/>
      <point x="80" y="792"/>
      <point x="80" y="500" type="curve" smooth="yes"/>
      <point x="80" y="335"/>
      <point x="155" y="187"/>
      <point x="270" y="91" type="curve"/>
      <point x="221" y="7" type="line"/>
    </contour>
    <contour>
      <point x="344" y="219" type="line"/>
      <point x="270" y="283"/>
      <point x="221" y="382"/>
      <point x="221" y="493" type="curve" smooth="yes"/>
      <point x="221" y="766"/>
      <point x="481" y="961"/>
      <point x="714" y="860" type="curve"/>
    </contour>
    <contour>
      <point x="447" y="144" type="curve"/>
      <point x="817" y="785" type="line"/>
      <point x="891" y="719"/>
      <point x="939" y="619"/>
      <point x="939" y="507" type="curve" smooth="yes"/>
      <point x="939" y="239"/>
      <point x="688" y="40"/>
    </contour>
  </outline>
</glyph>
<glyph name="notequal" format="2">
  <advance width="1160"/>
  <unicode hex="2260"/>
  <outline>
    <contour>
      <point x="827" y="1182" type="line"/>
      <point x="672" y="1182" type="line"/>
      <point x="583" y="878" type="line"/>
      <point x="80" y="878" type="line"/>
      <point x="80" y="728" type="line"/>
      <point x="539" y="728" type="line"/>
      <point x="463" y="472" type="line"/>
      <point x="80" y="472" type="line"/>
      <point x="80" y="322" type="line"/>
      <point x="420" y="322" type="line"/>
      <point x="331" y="18" type="line"/>
      <point x="487" y="18" type="line"/>
      <point x="576" y="322" type="line"/>
      <point x="1080" y="322" type="line"/>
      <point x="1080" y="472" type="line"/>
      <point x="620" y="472" type="line"/>
      <point x="695" y="728" type="line"/>
      <point x="1080" y="728" type="line"/>
      <point x="1080" y="878" type="line"/>
      <point x="739" y="878" type="line"/>
    </contour>
  </outline>
</glyph>
<glyph name="replacementCharacter" format="2">
  <advance width="1630"/>
  <unicode hex="FFFD"/>
  <outline>
    <contour>
      <point x="816" y="-26" type="curve" smooth="yes"/>
      <point x="888" y="-26"/>
      <point x="960" y="2"/>
      <point x="1014" y="56" type="curve" smooth="yes"/>
      <point x="1428" y="470" type="line" smooth="yes"/>
      <point x="1484" y="526"/>
      <point x="1510" y="598"/>
      <point x="1510" y="670" type="curve" smooth="yes"/>
      <point x="1510" y="742"/>
      <point x="1484" y="812"/>
      <point x="1428" y="868" type="curve" smooth="yes"/>
      <point x="1014" y="1282" type="line" smooth="yes"/>
      <point x="958" y="1338"/>
      <point x="888" y="1364"/>
      <point x="816" y="1364" type="curve" smooth="yes"/>
      <point x="744" y="1364"/>
      <point x="672" y="1338"/>
      <point x="616" y="1282" type="curve" smooth="yes"/>
      <point x="202" y="868" type="line" smooth="yes"/>
      <point x="148" y="814"/>
      <point x="120" y="742"/>
      <point x="120" y="670" type="curve" smooth="yes"/>
      <point x="120" y="598"/>
      <point x="146" y="526"/>
      <point x="202" y="470" type="curve" smooth="yes"/>
      <point x="616" y="56" type="line" smooth="yes"/>
      <point x="672" y="0"/>
      <point x="744" y="-26"/>
    </contour>
    <contour>
      <point x="823" y="305" type="curve" smooth="yes"/>
      <point x="792" y="305"/>
      <point x="766" y="330"/>
      <point x="766" y="362" type="curve" smooth="yes"/>
      <point x="766" y="392"/>
      <point x="792" y="418"/>
      <point x="823" y="418" type="curve" smooth="yes"/>
      <point x="855" y="418"/>
      <point x="879" y="392"/>
      <point x="879" y="362" type="curve" smooth="yes"/>
      <point x="879" y="330"/>
      <point x="855" y="305"/>
    </contour>
    <contour>
      <point x="763" y="517" type="line"/>
      <point x="763" y="519" type="line" smooth="yes"/>
      <point x="763" y="592"/>
      <point x="803" y="659"/>
      <point x="868" y="693" type="curve" smooth="yes"/>
      <point x="902" y="711"/>
      <point x="924" y="750"/>
      <point x="924" y="793" type="curve" smooth="yes"/>
      <point x="924" y="855"/>
      <point x="874" y="904"/>
      <point x="812" y="904" type="curve" smooth="yes"/>
      <point x="751" y="904"/>
      <point x="701" y="855"/>
      <point x="701" y="793" type="curve"/>
      <point x="588" y="793" type="line"/>
      <point x="588" y="916"/>
      <point x="688" y="1016"/>
      <point x="812" y="1016" type="curve" smooth="yes"/>
      <point x="935" y="1016"/>
      <point x="1037" y="916"/>
      <point x="1037" y="793" type="curve" smooth="yes"/>
      <point x="1037" y="708"/>
      <point x="991" y="634"/>
      <point x="921" y="595" type="curve" smooth="yes"/>
      <point x="893" y="579"/>
      <point x="875" y="550"/>
      <point x="875" y="519" type="curve" smooth="yes"/>
      <point x="875" y="517" type="line"/>
    </contour>
  </outline>
</glyph>
